<svg id="그룹_22855" data-name="그룹 22855" xmlns="http://www.w3.org/2000/svg" xmlns:xlink="http://www.w3.org/1999/xlink" width="26" height="26" viewBox="0 0 26 26">
  <defs>
    <clipPath id="clip-path">
      <rect id="사각형_24734" data-name="사각형 24734" width="26" height="26" fill="none" stroke="#707070" stroke-width="1"/>
    </clipPath>
  </defs>
  <g id="그룹_22854" data-name="그룹 22854" clip-path="url(#clip-path)">
    <path id="패스_29227" data-name="패스 29227" d="M11.7,9.1V1.95H4.55a2.6,2.6,0,0,0-2.6,2.6V11.7H9.1" fill="none" stroke="#c6c6c6" stroke-linecap="round" stroke-width="1.5"/>
    <path id="패스_29228" data-name="패스 29228" d="M11.7,24.05H4.55a2.6,2.6,0,0,1-2.6-2.6V14.3H11.7v7.15" fill="none" stroke="#c6c6c6" stroke-linecap="round" stroke-width="1.5"/>
    <path id="패스_29229" data-name="패스 29229" d="M14.3,18.85V14.3h5.2" fill="none" stroke="#c6c6c6" stroke-linecap="round" stroke-width="1.5"/>
    <path id="패스_29230" data-name="패스 29230" d="M21.45,19.5h2.6v1.95a2.6,2.6,0,0,1-2.6,2.6H19.5V23.4" fill="none" stroke="#c6c6c6" stroke-linecap="round" stroke-width="1.5"/>
    <path id="패스_29232" data-name="패스 29232" d="M14.3,11.7V1.95h7.15a2.6,2.6,0,0,1,2.6,2.6V11.7H19.5" fill="none" stroke="#c6c6c6" stroke-linecap="round" stroke-width="1.5"/>
    <line id="선_256" data-name="선 256" x1="1.3" transform="translate(16.25 11.7)" fill="none" stroke="#c6c6c6" stroke-width="1.5"/>
    <line id="선_257" data-name="선 257" x1="1.3" transform="translate(11.05 11.7)" fill="none" stroke="#c6c6c6" stroke-width="1.5"/>
    <path id="패스_29233" data-name="패스 29233" d="M19.95,7.6H18.4V6.05h1.55Zm1.5-3.05H16.9V9.1h4.55Z" fill="#c6c6c6"/>
    <path id="패스_29234" data-name="패스 29234" d="M7.6,7.6H6.05V6.05H7.6ZM9.1,4.55H4.55V9.1H9.1Z" fill="#c6c6c6"/>
    <path id="패스_29235" data-name="패스 29235" d="M7.6,19.95H6.05V18.4H7.6ZM9.1,16.9H4.55v4.55H9.1Z" fill="#c6c6c6"/>
    <line id="선_258" data-name="선 258" x1="1.95" transform="translate(22.75 14.3)" fill="none" stroke="#c6c6c6" stroke-width="1.5"/>
    <line id="선_262" data-name="선 262" x1="1.95" transform="translate(20.8 16.428)" fill="none" stroke="#c6c6c6" stroke-width="1.5"/>
    <path id="패스_29236" data-name="패스 29236" d="M14.3,24.7V21.45h3.9V16.9" fill="none" stroke="#c6c6c6" stroke-width="1.5"/>
  </g>
</svg>
