<svg xmlns="http://www.w3.org/2000/svg" xmlns:xlink="http://www.w3.org/1999/xlink" width="58" height="58" viewBox="0 0 58 58">
  <defs>
    <filter id="타원_279" x="0" y="0" width="58" height="58" filterUnits="userSpaceOnUse">
      <feOffset dy="3" input="SourceAlpha"/>
      <feGaussianBlur stdDeviation="3" result="blur"/>
      <feFlood flood-opacity="0.161"/>
      <feComposite operator="in" in2="blur"/>
      <feComposite in="SourceGraphic"/>
    </filter>
  </defs>
  <g id="그룹_22947" data-name="그룹 22947" transform="translate(-251 -316)">
    <g id="그룹_22945" data-name="그룹 22945" transform="translate(260 322)">
      <g transform="matrix(1, 0, 0, 1, -9, -6)" filter="url(#타원_279)">
        <g id="타원_279-2" data-name="타원 279" transform="translate(9 6)" fill="#00da6c" stroke="#00da6c" stroke-width="1">
          <circle cx="20" cy="20" r="20" stroke="none"/>
          <circle cx="20" cy="20" r="19.5" fill="none"/>
        </g>
      </g>
    </g>
    <g id="그룹_22946" data-name="그룹 22946" transform="translate(271.556 333.556)">
      <path id="패스_1878" data-name="패스 1878" d="M640.506,1107.245c-.1-.186-.378-.306-.792-.539s-2.456-1.366-2.838-1.526-.663-.243-.961.182-1.144,1.372-1.4,1.652-.506.308-.922.073a11.554,11.554,0,0,1-3.323-2.29,13.107,13.107,0,0,1-2.243-3.1c-.232-.445,0-.672.218-.88.2-.189.442-.493.663-.738a2.983,2.983,0,0,0,.449-.709.819.819,0,0,0-.008-.763c-.1-.221-.866-2.395-1.186-3.279-.218-.6-.452-.73-.657-.757H627.5a4.909,4.909,0,0,0-1.1-.073h0a1.531,1.531,0,0,0-1.12.5,4.921,4.921,0,0,0-1.613,3.571,8.6,8.6,0,0,0,1.563,4.565c.2.3,2.749,4.939,6.985,6.847s4.26,1.326,5.036,1.284a4.273,4.273,0,0,0,2.931-1.959A3.728,3.728,0,0,0,640.506,1107.245Z" transform="translate(-623.665 -1094.488)" fill="#fff"/>
    </g>
  </g>
</svg>
