<svg xmlns="http://www.w3.org/2000/svg" xmlns:xlink="http://www.w3.org/1999/xlink" width="13" height="8" viewBox="0 0 13 8">
  <defs>
    <clipPath id="clip-path">
      <rect id="사각형_23866" data-name="사각형 23866" width="12" height="8" transform="translate(334 476)" fill="#fff" stroke="#707070" stroke-width="1"/>
    </clipPath>
  </defs>
  <g id="그룹_18450" data-name="그룹 18450" transform="translate(-334 -476)">
    <g id="그룹_10477" data-name="그룹 10477" transform="translate(-1875.436 -52.105)">
      <g id="그룹_10473" data-name="그룹 10473" transform="translate(2209.436 528.105)">
        <g id="그룹_10472" data-name="그룹 10472" transform="translate(0)">
          <path id="패스_8569" data-name="패스 8569" d="M2215.936,536.1a7.3,7.3,0,0,1-3.762-1.038,7.16,7.16,0,0,1-2.6-2.71l-.136-.251.136-.251a7.159,7.159,0,0,1,2.6-2.71,7.334,7.334,0,0,1,7.524,0,7.153,7.153,0,0,1,2.6,2.71l.137.251-.137.251a7.153,7.153,0,0,1-2.6,2.71A7.3,7.3,0,0,1,2215.936,536.1Z" transform="translate(-2209.436 -528.105)" fill="#c6c6c6"/>
        </g>
      </g>
      <g id="그룹_10474" data-name="그룹 10474" transform="translate(2212.381 528.786)">
        <path id="패스_8570" data-name="패스 8570" d="M2467.879,589.057a3.664,3.664,0,0,1-2.514-.972,3.166,3.166,0,0,1,0-4.694,3.737,3.737,0,0,1,5.028,0,3.166,3.166,0,0,1,0,4.694A3.665,3.665,0,0,1,2467.879,589.057Zm0-5.469a2.154,2.154,0,1,0,2.3,2.149A2.232,2.232,0,0,0,2467.879,583.588Z" transform="translate(-2464.324 -582.418)" fill="#fff"/>
      </g>
      <g id="그룹_10475" data-name="그룹 10475" transform="translate(2212.808 528.981)">
        <circle id="타원_227" data-name="타원 227" cx="1.339" cy="1.339" r="1.339" transform="translate(0 1.894) rotate(-45)" fill="#fff"/>
      </g>
    </g>
    <g id="마스크_그룹_1" data-name="마스크 그룹 1" clip-path="url(#clip-path)">
      <g id="그룹_10478" data-name="그룹 10478" transform="translate(334.913 475.729)">
        <path id="패스_8571" data-name="패스 8571" d="M1205.563,476l8.944,8.807" transform="translate(-1204.462 -476)" fill="none" stroke="#fff" stroke-width="1"/>
        <path id="패스_8573" data-name="패스 8573" d="M1205.563,476l8.944,8.807" transform="translate(-1205.563 -476)" fill="none" stroke="#c6c6c6" stroke-width="1"/>
      </g>
    </g>
  </g>
</svg>
