<svg xmlns="http://www.w3.org/2000/svg" xmlns:xlink="http://www.w3.org/1999/xlink" width="58" height="58" viewBox="0 0 58 58">
  <defs>
    <filter id="타원_296" x="0" y="0" width="58" height="58" filterUnits="userSpaceOnUse">
      <feOffset dy="3" input="SourceAlpha"/>
      <feGaussianBlur stdDeviation="3" result="blur"/>
      <feFlood flood-opacity="0.161"/>
      <feComposite operator="in" in2="blur"/>
      <feComposite in="SourceGraphic"/>
    </filter>
  </defs>
  <g id="그룹_18852" data-name="그룹 18852" transform="translate(9.366 6)">
    <g id="그룹_18849" data-name="그룹 18849" transform="translate(0 0)">
      <g transform="matrix(1, 0, 0, 1, -9.37, -6)" filter="url(#타원_296)">
        <g id="타원_296-2" data-name="타원 296" transform="translate(9 6)" fill="#007bff" stroke="#007bff" stroke-width="1">
          <circle cx="20" cy="20" r="20" stroke="none"/>
          <circle cx="20" cy="20" r="19.5" fill="none"/>
        </g>
      </g>
    </g>
    <path id="패스_8801" data-name="패스 8801" d="M70.469,262.682H58.022a2.5,2.5,0,0,0-2.526,2.462v8.473a2.5,2.5,0,0,0,2.526,2.462H70.469A2.5,2.5,0,0,0,73,273.616v-8.473A2.5,2.5,0,0,0,70.469,262.682Zm0,1.177a1.35,1.35,0,0,1,.3.035L65.518,269.7a1.726,1.726,0,0,1-2.545,0l-5.251-5.806a1.349,1.349,0,0,1,.3-.035Zm1.319,9.758a1.3,1.3,0,0,1-1.319,1.285H58.022a1.3,1.3,0,0,1-1.319-1.285v-8.473a1.256,1.256,0,0,1,.1-.487l5.265,5.821a2.955,2.955,0,0,0,4.357,0l5.265-5.821a1.247,1.247,0,0,1,.1.487Z" transform="translate(-44.862 -249.682)" fill="#fff" stroke="rgba(0,0,0,0)" stroke-width="1"/>
  </g>
</svg>
