<svg id="그룹_22852" data-name="그룹 22852" xmlns="http://www.w3.org/2000/svg" xmlns:xlink="http://www.w3.org/1999/xlink" width="26" height="26" viewBox="0 0 26 26">
  <defs>
    <clipPath id="clip-path">
      <rect id="사각형_24733" data-name="사각형 24733" width="26" height="26" fill="none"/>
    </clipPath>
  </defs>
  <g id="그룹_22851" data-name="그룹 22851" clip-path="url(#clip-path)">
    <path id="패스_29223" data-name="패스 29223" d="M22.1,6.7a1.1,1.1,0,0,1,1.1,1.1V22.1a1.1,1.1,0,0,1-1.1,1.1H3.9a1.1,1.1,0,0,1-1.1-1.1V6.7Zm0-1.5H1.3V22.1a2.6,2.6,0,0,0,2.6,2.6H22.1a2.6,2.6,0,0,0,2.6-2.6V7.8a2.6,2.6,0,0,0-2.6-2.6" fill="#c6c6c6"/>
    <path id="패스_29224" data-name="패스 29224" d="M10.349,2.8A1.152,1.152,0,0,1,11.5,3.951V5.207H2.8V3.951A1.153,1.153,0,0,1,3.952,2.8Zm0-1.5h-6.4A2.651,2.651,0,0,0,1.3,3.951V6.707H13V3.951A2.651,2.651,0,0,0,10.349,1.3" fill="#c6c6c6"/>
    <path id="패스_29225" data-name="패스 29225" d="M13.109,9.924A1.708,1.708,0,1,1,11.4,11.633a1.711,1.711,0,0,1,1.709-1.709m0-1.5a3.208,3.208,0,1,0,3.209,3.209,3.209,3.209,0,0,0-3.209-3.209" fill="#c6c6c6"/>
    <path id="패스_29226" data-name="패스 29226" d="M19.067,20.8v-.917A3.667,3.667,0,0,0,15.4,16.216H10.816A3.666,3.666,0,0,0,7.15,19.883V20.8" fill="none" stroke="#c6c6c6" stroke-linecap="round" stroke-width="1.5"/>
  </g>
</svg>
