<svg xmlns="http://www.w3.org/2000/svg" width="13" height="8" viewBox="0 0 13 8">
  <g id="그룹_10476" data-name="그룹 10476" transform="translate(-2209.436 -528.105)">
    <g id="그룹_10473" data-name="그룹 10473" transform="translate(2209.436 528.105)">
      <g id="그룹_10472" data-name="그룹 10472" transform="translate(0)">
        <path id="패스_8569" data-name="패스 8569" d="M2215.936,536.1a7.3,7.3,0,0,1-3.762-1.038,7.16,7.16,0,0,1-2.6-2.71l-.136-.251.136-.251a7.159,7.159,0,0,1,2.6-2.71,7.334,7.334,0,0,1,7.524,0,7.153,7.153,0,0,1,2.6,2.71l.137.251-.137.251a7.153,7.153,0,0,1-2.6,2.71A7.3,7.3,0,0,1,2215.936,536.1Z" transform="translate(-2209.436 -528.105)" fill="#c6c6c6"/>
      </g>
    </g>
    <g id="그룹_10474" data-name="그룹 10474" transform="translate(2212.381 528.786)">
      <path id="패스_8570" data-name="패스 8570" d="M2467.879,589.057a3.664,3.664,0,0,1-2.514-.972,3.166,3.166,0,0,1,0-4.694,3.737,3.737,0,0,1,5.028,0,3.166,3.166,0,0,1,0,4.694A3.665,3.665,0,0,1,2467.879,589.057Zm0-5.469a2.154,2.154,0,1,0,2.3,2.149A2.232,2.232,0,0,0,2467.879,583.588Z" transform="translate(-2464.324 -582.418)" fill="#fff"/>
    </g>
    <g id="그룹_10475" data-name="그룹 10475" transform="translate(2212.808 528.981)">
      <circle id="타원_227" data-name="타원 227" cx="1.339" cy="1.339" r="1.339" transform="translate(0 1.894) rotate(-45)" fill="#fff"/>
    </g>
  </g>
</svg>
