<svg id="그룹_22875" data-name="그룹 22875" xmlns="http://www.w3.org/2000/svg" xmlns:xlink="http://www.w3.org/1999/xlink" width="40" height="40" viewBox="0 0 40 40">
  <defs>
    <clipPath id="clip-path">
      <rect id="사각형_24744" data-name="사각형 24744" width="40" height="40" fill="none"/>
    </clipPath>
  </defs>
  <g id="그룹_22874" data-name="그룹 22874" clip-path="url(#clip-path)">
    <g id="그룹_22873" data-name="그룹 22873">
      <g id="그룹_22872" data-name="그룹 22872" clip-path="url(#clip-path)">
        <path id="패스_29249" data-name="패스 29249" d="M34,9.5A2.5,2.5,0,0,1,36.5,12V34A2.5,2.5,0,0,1,34,36.5H6A2.5,2.5,0,0,1,3.5,34V9.5ZM34,8H2V34a4,4,0,0,0,4,4H34a4,4,0,0,0,4-4V12a4,4,0,0,0-4-4" fill="#231815"/>
        <path id="패스_29250" data-name="패스 29250" d="M16,2.988a2.5,2.5,0,0,1,2.5,2.5v2.5H3.5v-2.5A2.5,2.5,0,0,1,6,2.988Zm0-1.5H6a4,4,0,0,0-4,4v4H20v-4a4,4,0,0,0-4-4" fill="#231815"/>
        <path id="패스_29251" data-name="패스 29251" d="M20.167,14.46A3.436,3.436,0,1,1,16.731,17.9a3.44,3.44,0,0,1,3.436-3.436m0-1.5A4.936,4.936,0,1,0,25.1,17.9a4.936,4.936,0,0,0-4.936-4.936" fill="#007bff"/>
        <path id="패스_29252" data-name="패스 29252" d="M29.335,32V30.59a5.642,5.642,0,0,0-5.641-5.642H16.642A5.642,5.642,0,0,0,11,30.59V32" fill="none" stroke="#007bff" stroke-linecap="round" stroke-width="1.5"/>
      </g>
    </g>
  </g>
</svg>
